<svg xmlns="http://www.w3.org/2000/svg" width="512" height="512" viewBox="0 0 512 512">
  <defs>
    <linearGradient id="bg" x1="0%" y1="0%" x2="100%" y2="100%">
      <stop offset="0%" style="stop-color:#ec4899"/>
      <stop offset="100%" style="stop-color:#a855f7"/>
    </linearGradient>
    <linearGradient id="petal1" x1="0%" y1="0%" x2="100%" y2="100%">
      <stop offset="0%" style="stop-color:#f9a8d4"/>
      <stop offset="100%" style="stop-color:#ec4899"/>
    </linearGradient>
    <linearGradient id="petal2" x1="0%" y1="0%" x2="100%" y2="100%">
      <stop offset="0%" style="stop-color:#f0abfc"/>
      <stop offset="100%" style="stop-color:#c084fc"/>
    </linearGradient>
    <linearGradient id="petal3" x1="100%" y1="0%" x2="0%" y2="100%">
      <stop offset="0%" style="stop-color:#fda4af"/>
      <stop offset="100%" style="stop-color:#fb7185"/>
    </linearGradient>
  </defs>
  <rect width="512" height="512" rx="108" fill="url(#bg)"/>
  <g transform="translate(256,256)">
    <ellipse cx="0" cy="-75" rx="58" ry="100" fill="url(#petal1)" opacity="0.9" transform="rotate(-30)"/>
    <ellipse cx="0" cy="-75" rx="58" ry="100" fill="url(#petal2)" opacity="0.9" transform="rotate(30)"/>
    <ellipse cx="0" cy="-75" rx="58" ry="100" fill="url(#petal3)" opacity="0.9" transform="rotate(0)"/>
    <ellipse cx="0" cy="-58" rx="42" ry="80" fill="#fde8ef" opacity="0.7" transform="rotate(-15)"/>
    <ellipse cx="0" cy="-58" rx="42" ry="80" fill="#fae8ff" opacity="0.7" transform="rotate(15)"/>
    <ellipse cx="0" cy="-30" rx="26" ry="48" fill="#fbbf24" opacity="0.8"/>
    <rect x="-8" y="28" width="16" height="108" rx="8" fill="#22c55e"/>
    <ellipse cx="-48" cy="80" rx="38" ry="18" fill="#22c55e" transform="rotate(-30 -48 80)"/>
    <ellipse cx="48" cy="96" rx="38" ry="18" fill="#16a34a" transform="rotate(30 48 96)"/>
  </g>
</svg>
