<svg xmlns="http://www.w3.org/2000/svg" viewBox="0 0 100 100">
  <defs>
    <linearGradient id="bg3" x1="0%" y1="0%" x2="100%" y2="100%">
      <stop offset="0%" stop-color="#e91e8c"/>
      <stop offset="100%" stop-color="#9c27b0"/>
    </linearGradient>
    <linearGradient id="skin3" x1="0%" y1="0%" x2="0%" y2="100%">
      <stop offset="0%" stop-color="#fff0e6"/>
      <stop offset="100%" stop-color="#f5d0c5"/>
    </linearGradient>
    <linearGradient id="hair3" x1="0%" y1="0%" x2="100%" y2="100%">
      <stop offset="0%" stop-color="#5a3a2a"/>
      <stop offset="100%" stop-color="#3a2418"/>
    </linearGradient>
    <linearGradient id="suit3" x1="0%" y1="0%" x2="100%" y2="100%">
      <stop offset="0%" stop-color="#ad1457"/>
      <stop offset="100%" stop-color="#7b1045"/>
    </linearGradient>
  </defs>
  <circle cx="50" cy="50" r="50" fill="url(#bg3)"/>
  <!-- 身体 -->
  <path d="M18 95 Q18 72 30 62 Q40 56 50 56 Q60 56 70 62 Q82 72 82 95 Z" fill="url(#suit3)"/>
  <!-- 蝴蝶结 -->
  <path d="M45 60 L42 58 L42 62 Z" fill="#f06292"/>
  <path d="M55 60 L58 58 L58 62 Z" fill="#f06292"/>
  <circle cx="50" cy="60" r="3" fill="#f06292"/>
  <!-- 脖子 -->
  <rect x="43" y="48" width="14" height="14" fill="url(#skin3)" rx="4"/>
  <!-- 脸型（圆脸，显年轻） -->
  <ellipse cx="50" cy="39" rx="20" ry="21" fill="url(#skin3)"/>
  <!-- 头发（齐刘海） -->
  <path d="M28 34 Q28 12 50 12 Q72 12 72 34 Q72 42 68 38 Q65 24 50 22 Q35 24 32 38 Q28 42 28 34 Z" fill="url(#hair3)"/>
  <!-- 刘海 -->
  <path d="M32 24 Q40 30 50 28 Q60 30 68 24 Q65 18 50 18 Q35 18 32 24 Z" fill="url(#hair3)"/>
  <path d="M72 34 Q76 40 74 50 L70 46 Q70 38 72 34 Z" fill="url(#hair3)"/>
  <!-- 大眼睛 -->
  <ellipse cx="42" cy="38" rx="4" ry="3.5" fill="#3a2018"/>
  <ellipse cx="58" cy="38" rx="4" ry="3.5" fill="#3a2018"/>
  <!-- 高光 -->
  <circle cx="41" cy="37" r="1.2" fill="#fff"/>
  <circle cx="57" cy="37" r="1.2" fill="#fff"/>
  <!-- 腮红 -->
  <ellipse cx="38" cy="44" rx="4" ry="2.5" fill="#f8bbd0" opacity="0.5"/>
  <ellipse cx="62" cy="44" rx="4" ry="2.5" fill="#f8bbd0" opacity="0.5"/>
  <!-- 嘴唇 -->
  <path d="M46 47 Q50 49 54 47 Q50 51 46 47 Z" fill="#e57373"/>
</svg>