<svg xmlns="http://www.w3.org/2000/svg" viewBox="0 0 100 100">
  <defs>
    <linearGradient id="bg5" x1="0%" y1="0%" x2="100%" y2="100%">
      <stop offset="0%" stop-color="#5c6bc0"/>
      <stop offset="100%" stop-color="#3949ab"/>
    </linearGradient>
    <linearGradient id="skin5" x1="0%" y1="0%" x2="0%" y2="100%">
      <stop offset="0%" stop-color="#f5e6d3"/>
      <stop offset="100%" stop-color="#deb887"/>
    </linearGradient>
    <linearGradient id="hair5" x1="0%" y1="0%" x2="100%" y2="100%">
      <stop offset="0%" stop-color="#212121"/>
      <stop offset="100%" stop-color="#000000"/>
    </linearGradient>
    <linearGradient id="suit5" x1="0%" y1="0%" x2="100%" y2="100%">
      <stop offset="0%" stop-color="#455a64"/>
      <stop offset="100%" stop-color="#263238"/>
    </linearGradient>
  </defs>
  <circle cx="50" cy="50" r="50" fill="url(#bg5)"/>
  <!-- 身体 -->
  <path d="M18 95 Q18 72 30 62 Q40 56 50 56 Q60 56 70 62 Q82 72 82 95 Z" fill="url(#suit5)"/>
  <!-- 格子衬衫领子 -->
  <path d="M40 60 L50 72 L60 60 L50 66 Z" fill="#78909c"/>
  <line x1="43" y1="63" x2="57" y2="63" stroke="#546e7a" stroke-width="0.8"/>
  <line x1="45" y1="66" x2="55" y2="66" stroke="#546e7a" stroke-width="0.8"/>
  <!-- 脖子 -->
  <rect x="43" y="48" width="14" height="14" fill="url(#skin5)" rx="4"/>
  <!-- 脸型（方一点显男性） -->
  <path d="M31 28 Q31 14 50 14 Q69 14 69 28 L69 36 Q69 48 50 52 Q31 48 31 36 Z" fill="url(#skin5)"/>
  <!-- 头发 -->
  <path d="M29 26 Q29 10 50 10 Q71 10 71 26 Q71 32 68 28 Q65 16 50 14 Q35 16 32 28 Q29 32 29 26 Z" fill="url(#hair5)"/>
  <!-- 刘海（盖住额头） -->
  <path d="M32 22 Q40 18 50 20 Q60 18 68 22 Q65 16 50 14 Q35 16 32 22 Z" fill="url(#hair5)"/>
  <!-- 眼睛 -->
  <ellipse cx="43" cy="33" rx="3" ry="2" fill="#2c2416"/>
  <ellipse cx="57" cy="33" rx="3" ry="2" fill="#2c2416"/>
  <!-- 眉毛 -->
  <path d="M39 29 Q43 28 47 30" stroke="#212121" stroke-width="1.5" fill="none" stroke-linecap="round"/>
  <path d="M53 30 Q57 28 61 29" stroke="#212121" stroke-width="1.5" fill="none" stroke-linecap="round"/>
  <!-- 嘴唇 -->
  <path d="M46 42 Q50 44 54 42 Q50 45 46 42 Z" fill="#b07060"/>
</svg>